<svg xmlns="http://www.w3.org/2000/svg" width="16" height="16" viewBox="0 0 16 16" fill="none">
  <path fill-rule="evenodd" clip-rule="evenodd" d="M8 4.00065C6.52724 4.00065 5.33333 5.19456 5.33333 6.66732C5.33333 8.14008 6.52724 9.33398 8 9.33398C9.47276 9.33398 10.6667 8.14008 10.6667 6.66732C10.6667 5.19456 9.47276 4.00065 8 4.00065ZM6.66667 6.66732C6.66667 5.93094 7.26362 5.33398 8 5.33398C8.73638 5.33398 9.33333 5.93094 9.33333 6.66732C9.33333 7.4037 8.73638 8.00065 8 8.00065C7.26362 8.00065 6.66667 7.4037 6.66667 6.66732Z" fill="#1F2328" fill-opacity="0.7"/>
  <path fill-rule="evenodd" clip-rule="evenodd" d="M9.95186 1.35394C8.69342 0.882022 7.30663 0.882022 6.04819 1.35393C3.63932 2.25726 2.16503 4.6955 2.48413 7.24831L2.4996 7.37207C2.62722 8.39302 3.028 9.36061 3.65969 10.1728L6.42132 13.7234C7.22204 14.7529 8.77801 14.7529 9.57873 13.7234L12.3404 10.1728C12.972 9.36061 13.3728 8.39302 13.5005 7.37207L13.5159 7.24831C13.835 4.6955 12.3607 2.25726 9.95186 1.35394ZM6.51636 2.60237C7.47295 2.24365 8.52711 2.24365 9.48369 2.60237C11.3148 3.28903 12.4354 5.14244 12.1929 7.08293L12.1774 7.20669C12.0796 7.98953 11.7722 8.73145 11.2879 9.35419L8.52626 12.9049C8.25935 13.248 7.7407 13.248 7.47379 12.9049L4.71216 9.35419C4.2278 8.73145 3.92049 7.98953 3.82263 7.20669L3.80716 7.08293C3.5646 5.14244 4.68527 3.28903 6.51636 2.60237Z" fill="#1F2328" fill-opacity="0.7"/>
</svg>