<svg xmlns="http://www.w3.org/2000/svg" width="16" height="16" viewBox="0 0 16 16" fill="none">
  <path d="M6.11458 4.47223C6.69471 4.16215 7.34236 3.99992 8.00016 3.99992V7.99992L10.8286 10.8283C10.3635 11.2935 9.79078 11.6367 9.1613 11.8277C8.53182 12.0186 7.86497 12.0514 7.2198 11.9231C6.57464 11.7947 5.97108 11.5093 5.46259 11.092C4.9541 10.6747 4.55638 10.1384 4.30465 9.53065C4.05292 8.92292 3.95495 8.26249 4.01942 7.60785C4.0839 6.95321 4.30883 6.32458 4.67429 5.77764C5.03974 5.23069 5.53445 4.78232 6.11458 4.47223Z" fill="#1F2328" fill-opacity="0.7"/>
  <path fill-rule="evenodd" clip-rule="evenodd" d="M8.00016 1.33325C4.31826 1.33325 1.3335 4.31802 1.3335 7.99992C1.3335 11.6818 4.31826 14.6666 8.00016 14.6666C11.6821 14.6666 14.6668 11.6818 14.6668 7.99992C14.6668 4.31802 11.6821 1.33325 8.00016 1.33325ZM2.66683 7.99992C2.66683 5.0544 5.05464 2.66659 8.00016 2.66659C10.9457 2.66659 13.3335 5.0544 13.3335 7.99992C13.3335 10.9454 10.9457 13.3333 8.00016 13.3333C5.05464 13.3333 2.66683 10.9454 2.66683 7.99992Z" fill="#1F2328" fill-opacity="0.7"/>
</svg>