<svg xmlns="http://www.w3.org/2000/svg" width="18" height="18" viewBox="0 0 18 18" fill="none">
  <g clip-path="url(#clip0_1200_1035)">
    <path fill-rule="evenodd" clip-rule="evenodd" d="M9 6C7.34315 6 6 7.34315 6 9C6 10.6569 7.34315 12 9 12C10.6569 12 12 10.6569 12 9C12 7.34315 10.6569 6 9 6ZM7.5 9C7.5 8.17157 8.17157 7.5 9 7.5C9.82843 7.5 10.5 8.17157 10.5 9C10.5 9.82843 9.82843 10.5 9 10.5C8.17157 10.5 7.5 9.82843 7.5 9Z" fill="#1F2328" fill-opacity="0.7"/>
    <path fill-rule="evenodd" clip-rule="evenodd" d="M11.0892 0.930243C10.5048 0.805936 9.73746 0.75 9.00003 0.75C8.26261 0.75 7.49529 0.805936 6.9109 0.930243C6.61304 0.993603 6.38305 1.23078 6.3289 1.53046L6.11093 2.73662C5.51961 2.97425 4.96403 3.29479 4.46225 3.68894L3.31058 3.27603C3.02388 3.17324 2.70348 3.25404 2.49981 3.4805C1.72715 4.33961 1.14367 5.35175 0.786713 6.45082C0.692701 6.74028 0.782935 7.05785 1.0151 7.25463L1.94955 8.04664C1.85943 8.67889 1.85943 9.32111 1.94955 9.95336L1.0151 10.7454C0.782935 10.9422 0.692701 11.2597 0.786713 11.5492C1.14367 12.6482 1.72715 13.6604 2.49981 14.5195C2.70362 14.7461 3.02431 14.8269 3.31113 14.7238L4.46248 14.31C4.96394 14.7041 5.51938 15.0253 6.11091 15.2633L6.3289 16.4695C6.38305 16.7692 6.61304 17.0064 6.9109 17.0698C7.49529 17.1941 8.26261 17.25 9.00003 17.25C9.73746 17.25 10.5048 17.1941 11.0892 17.0698C11.3872 17.0064 11.6173 16.7689 11.6713 16.469L11.8882 15.2633C12.4806 15.0252 13.0356 14.7038 13.5373 14.3098L14.6889 14.7238C14.9758 14.8269 15.2964 14.7461 15.5003 14.5195C16.2729 13.6604 16.8564 12.6482 17.2134 11.5492C17.3074 11.2597 17.2171 10.9422 16.985 10.7454L16.0505 9.95336C16.1406 9.32111 16.1406 8.67889 16.0505 8.04664L16.985 7.25463C17.2171 7.05785 17.3074 6.74028 17.2134 6.45082C16.8564 5.35175 16.2729 4.33961 15.5003 3.4805C15.2966 3.25404 14.9762 3.17324 14.6895 3.27603L13.5375 3.68906C13.0355 3.29505 12.4803 2.97436 11.8881 2.73657L11.6713 1.53104C11.6173 1.23111 11.3872 0.993648 11.0892 0.930243ZM7.51041 3.42731L7.71061 2.3195C8.08941 2.27446 8.53786 2.25 9.00003 2.25C9.46203 2.25 9.91032 2.27444 10.289 2.31945L10.4882 3.42673C10.5372 3.69884 10.7319 3.92195 10.9948 4.0073C11.6938 4.23417 12.3367 4.60552 12.8833 5.09773C13.0884 5.28246 13.3785 5.33957 13.6383 5.24641L14.7031 4.86464C15.0778 5.34855 15.385 5.88139 15.6163 6.44836L14.7523 7.18071C14.5418 7.35913 14.4462 7.63874 14.5036 7.90866C14.6563 8.62781 14.6563 9.37219 14.5036 10.0913C14.4462 10.3613 14.5418 10.6409 14.7523 10.8193L15.6163 11.5516C15.385 12.1185 15.0779 12.6512 14.7034 13.135L13.6389 12.7524C13.3789 12.659 13.0886 12.716 12.8833 12.9009C12.3362 13.3936 11.6931 13.7661 10.9948 13.9927C10.7319 14.078 10.5372 14.3012 10.4882 14.5733L10.289 15.6805C9.91032 15.7256 9.46203 15.75 9.00003 15.75C8.53786 15.75 8.08941 15.7255 7.71061 15.6805L7.51041 14.5727C7.46131 14.301 7.26687 14.0782 7.00427 13.9928C6.30674 13.766 5.66248 13.3934 5.11738 12.9014C4.91207 12.7162 4.62146 12.6589 4.36121 12.7524L3.29668 13.135C2.92214 12.6512 2.61502 12.1185 2.38376 11.5516L3.24781 10.8193C3.45832 10.6409 3.55384 10.3613 3.49651 10.0913C3.34377 9.37219 3.34377 8.62781 3.49651 7.90866C3.55384 7.63874 3.45832 7.35913 3.24781 7.18071L2.38376 6.44836C2.61507 5.88139 2.92229 5.34855 3.29695 4.86464L4.36176 5.24641C4.62189 5.33967 4.91223 5.28233 5.11738 5.09718C5.66194 4.6057 6.30605 4.23421 7.00427 4.00719C7.26687 3.92181 7.46131 3.69904 7.51041 3.42731Z" fill="#1F2328" fill-opacity="0.7"/>
  </g>
  <defs>
    <clipPath id="clip0_1200_1035">
      <rect width="18" height="18" fill="white"/>
    </clipPath>
  </defs>
</svg>